<?xml version="1.0" encoding="utf-8"?>
<svg xmlns="http://www.w3.org/2000/svg" xmlns:xlink="http://www.w3.org/1999/xlink" width="600" height="400" viewBox="0 0 2400 1600">
<defs>
  <clipPath id="clip730">
    <rect x="0" y="0" width="2400" height="1600"/>
  </clipPath>
</defs>
<path clip-path="url(#clip730)" d="M0 1600 L2400 1600 L2400 0 L0 0  Z" fill="#ffffff" fill-rule="evenodd" fill-opacity="1"/>
<defs>
  <clipPath id="clip731">
    <rect x="480" y="0" width="1681" height="1600"/>
  </clipPath>
</defs>
<path clip-path="url(#clip730)" d="M346.694 1423.18 L2352.76 1423.18 L2352.76 47.2441 L346.694 47.2441  Z" fill="#ffffff" fill-rule="evenodd" fill-opacity="1"/>
<defs>
  <clipPath id="clip732">
    <rect x="346" y="47" width="2007" height="1377"/>
  </clipPath>
</defs>
<polyline clip-path="url(#clip732)" style="stroke:#000000; stroke-linecap:round; stroke-linejoin:round; stroke-width:2; stroke-opacity:0.1; fill:none" points="403.47,1423.18 403.47,47.2441 "/>
<polyline clip-path="url(#clip732)" style="stroke:#000000; stroke-linecap:round; stroke-linejoin:round; stroke-width:2; stroke-opacity:0.1; fill:none" points="758.745,1423.18 758.745,47.2441 "/>
<polyline clip-path="url(#clip732)" style="stroke:#000000; stroke-linecap:round; stroke-linejoin:round; stroke-width:2; stroke-opacity:0.1; fill:none" points="1114.02,1423.18 1114.02,47.2441 "/>
<polyline clip-path="url(#clip732)" style="stroke:#000000; stroke-linecap:round; stroke-linejoin:round; stroke-width:2; stroke-opacity:0.1; fill:none" points="1469.3,1423.18 1469.3,47.2441 "/>
<polyline clip-path="url(#clip732)" style="stroke:#000000; stroke-linecap:round; stroke-linejoin:round; stroke-width:2; stroke-opacity:0.1; fill:none" points="1824.57,1423.18 1824.57,47.2441 "/>
<polyline clip-path="url(#clip732)" style="stroke:#000000; stroke-linecap:round; stroke-linejoin:round; stroke-width:2; stroke-opacity:0.1; fill:none" points="2179.85,1423.18 2179.85,47.2441 "/>
<polyline clip-path="url(#clip730)" style="stroke:#000000; stroke-linecap:round; stroke-linejoin:round; stroke-width:4; stroke-opacity:1; fill:none" points="346.694,1423.18 2352.76,1423.18 "/>
<polyline clip-path="url(#clip730)" style="stroke:#000000; stroke-linecap:round; stroke-linejoin:round; stroke-width:4; stroke-opacity:1; fill:none" points="403.47,1423.18 403.47,1404.28 "/>
<polyline clip-path="url(#clip730)" style="stroke:#000000; stroke-linecap:round; stroke-linejoin:round; stroke-width:4; stroke-opacity:1; fill:none" points="758.745,1423.18 758.745,1404.28 "/>
<polyline clip-path="url(#clip730)" style="stroke:#000000; stroke-linecap:round; stroke-linejoin:round; stroke-width:4; stroke-opacity:1; fill:none" points="1114.02,1423.18 1114.02,1404.28 "/>
<polyline clip-path="url(#clip730)" style="stroke:#000000; stroke-linecap:round; stroke-linejoin:round; stroke-width:4; stroke-opacity:1; fill:none" points="1469.3,1423.18 1469.3,1404.28 "/>
<polyline clip-path="url(#clip730)" style="stroke:#000000; stroke-linecap:round; stroke-linejoin:round; stroke-width:4; stroke-opacity:1; fill:none" points="1824.57,1423.18 1824.57,1404.28 "/>
<polyline clip-path="url(#clip730)" style="stroke:#000000; stroke-linecap:round; stroke-linejoin:round; stroke-width:4; stroke-opacity:1; fill:none" points="2179.85,1423.18 2179.85,1404.28 "/>
<path clip-path="url(#clip730)" d="M354.616 1466.95 Q357.972 1467.66 359.847 1469.93 Q361.745 1472.2 361.745 1475.53 Q361.745 1480.65 358.227 1483.45 Q354.708 1486.25 348.227 1486.25 Q346.051 1486.25 343.736 1485.81 Q341.444 1485.39 338.991 1484.54 L338.991 1480.02 Q340.935 1481.16 343.25 1481.74 Q345.565 1482.32 348.088 1482.32 Q352.486 1482.32 354.778 1480.58 Q357.093 1478.84 357.093 1475.53 Q357.093 1472.48 354.94 1470.77 Q352.81 1469.03 348.991 1469.03 L344.963 1469.03 L344.963 1465.19 L349.176 1465.19 Q352.625 1465.19 354.454 1463.82 Q356.282 1462.43 356.282 1459.84 Q356.282 1457.18 354.384 1455.77 Q352.509 1454.33 348.991 1454.33 Q347.069 1454.33 344.87 1454.75 Q342.671 1455.16 340.032 1456.04 L340.032 1451.88 Q342.694 1451.14 345.009 1450.77 Q347.347 1450.39 349.407 1450.39 Q354.731 1450.39 357.833 1452.83 Q360.935 1455.23 360.935 1459.35 Q360.935 1462.22 359.292 1464.21 Q357.648 1466.18 354.616 1466.95 Z" fill="#000000" fill-rule="nonzero" fill-opacity="1" /><path clip-path="url(#clip730)" d="M383.458 1455.09 L371.653 1473.54 L383.458 1473.54 L383.458 1455.09 M382.231 1451.02 L388.111 1451.02 L388.111 1473.54 L393.041 1473.54 L393.041 1477.43 L388.111 1477.43 L388.111 1485.58 L383.458 1485.58 L383.458 1477.43 L367.856 1477.43 L367.856 1472.92 L382.231 1451.02 Z" fill="#000000" fill-rule="nonzero" fill-opacity="1" /><path clip-path="url(#clip730)" d="M399.592 1451.02 L421.814 1451.02 L421.814 1453.01 L409.268 1485.58 L404.384 1485.58 L416.189 1454.96 L399.592 1454.96 L399.592 1451.02 Z" fill="#000000" fill-rule="nonzero" fill-opacity="1" /><path clip-path="url(#clip730)" d="M430.935 1479.7 L435.819 1479.7 L435.819 1485.58 L430.935 1485.58 L430.935 1479.7 Z" fill="#000000" fill-rule="nonzero" fill-opacity="1" /><path clip-path="url(#clip730)" d="M456.004 1454.1 Q452.393 1454.1 450.564 1457.66 Q448.759 1461.2 448.759 1468.33 Q448.759 1475.44 450.564 1479.01 Q452.393 1482.55 456.004 1482.55 Q459.638 1482.55 461.444 1479.01 Q463.273 1475.44 463.273 1468.33 Q463.273 1461.2 461.444 1457.66 Q459.638 1454.1 456.004 1454.1 M456.004 1450.39 Q461.814 1450.39 464.87 1455 Q467.948 1459.58 467.948 1468.33 Q467.948 1477.06 464.87 1481.67 Q461.814 1486.25 456.004 1486.25 Q450.194 1486.25 447.115 1481.67 Q444.06 1477.06 444.06 1468.33 Q444.06 1459.58 447.115 1455 Q450.194 1450.39 456.004 1450.39 Z" fill="#000000" fill-rule="nonzero" fill-opacity="1" /><path clip-path="url(#clip730)" d="M710.389 1466.95 Q713.746 1467.66 715.621 1469.93 Q717.519 1472.2 717.519 1475.53 Q717.519 1480.65 714 1483.45 Q710.482 1486.25 704 1486.25 Q701.824 1486.25 699.51 1485.81 Q697.218 1485.39 694.764 1484.54 L694.764 1480.02 Q696.709 1481.16 699.023 1481.74 Q701.338 1482.32 703.861 1482.32 Q708.259 1482.32 710.551 1480.58 Q712.866 1478.84 712.866 1475.53 Q712.866 1472.48 710.713 1470.77 Q708.584 1469.03 704.764 1469.03 L700.736 1469.03 L700.736 1465.19 L704.949 1465.19 Q708.398 1465.19 710.227 1463.82 Q712.056 1462.43 712.056 1459.84 Q712.056 1457.18 710.158 1455.77 Q708.283 1454.33 704.764 1454.33 Q702.843 1454.33 700.644 1454.75 Q698.445 1455.16 695.806 1456.04 L695.806 1451.88 Q698.468 1451.14 700.783 1450.77 Q703.121 1450.39 705.181 1450.39 Q710.505 1450.39 713.607 1452.83 Q716.709 1455.23 716.709 1459.35 Q716.709 1462.22 715.065 1464.21 Q713.421 1466.18 710.389 1466.95 Z" fill="#000000" fill-rule="nonzero" fill-opacity="1" /><path clip-path="url(#clip730)" d="M739.232 1455.09 L727.426 1473.54 L739.232 1473.54 L739.232 1455.09 M738.005 1451.02 L743.884 1451.02 L743.884 1473.54 L748.815 1473.54 L748.815 1477.43 L743.884 1477.43 L743.884 1485.58 L739.232 1485.58 L739.232 1477.43 L723.63 1477.43 L723.63 1472.92 L738.005 1451.02 Z" fill="#000000" fill-rule="nonzero" fill-opacity="1" /><path clip-path="url(#clip730)" d="M755.366 1451.02 L777.588 1451.02 L777.588 1453.01 L765.042 1485.58 L760.157 1485.58 L771.963 1454.96 L755.366 1454.96 L755.366 1451.02 Z" fill="#000000" fill-rule="nonzero" fill-opacity="1" /><path clip-path="url(#clip730)" d="M786.708 1479.7 L791.592 1479.7 L791.592 1485.58 L786.708 1485.58 L786.708 1479.7 Z" fill="#000000" fill-rule="nonzero" fill-opacity="1" /><path clip-path="url(#clip730)" d="M801.824 1451.02 L820.18 1451.02 L820.18 1454.96 L806.106 1454.96 L806.106 1463.43 Q807.125 1463.08 808.143 1462.92 Q809.162 1462.73 810.18 1462.73 Q815.967 1462.73 819.347 1465.9 Q822.726 1469.08 822.726 1474.49 Q822.726 1480.07 819.254 1483.17 Q815.782 1486.25 809.463 1486.25 Q807.287 1486.25 805.018 1485.88 Q802.773 1485.51 800.365 1484.77 L800.365 1480.07 Q802.449 1481.2 804.671 1481.76 Q806.893 1482.32 809.37 1482.32 Q813.375 1482.32 815.713 1480.21 Q818.051 1478.1 818.051 1474.49 Q818.051 1470.88 815.713 1468.77 Q813.375 1466.67 809.37 1466.67 Q807.495 1466.67 805.62 1467.08 Q803.768 1467.5 801.824 1468.38 L801.824 1451.02 Z" fill="#000000" fill-rule="nonzero" fill-opacity="1" /><path clip-path="url(#clip730)" d="M1065.17 1466.95 Q1068.52 1467.66 1070.4 1469.93 Q1072.3 1472.2 1072.3 1475.53 Q1072.3 1480.65 1068.78 1483.45 Q1065.26 1486.25 1058.78 1486.25 Q1056.6 1486.25 1054.29 1485.81 Q1052 1485.39 1049.54 1484.54 L1049.54 1480.02 Q1051.49 1481.16 1053.8 1481.74 Q1056.12 1482.32 1058.64 1482.32 Q1063.04 1482.32 1065.33 1480.58 Q1067.64 1478.84 1067.64 1475.53 Q1067.64 1472.48 1065.49 1470.77 Q1063.36 1469.03 1059.54 1469.03 L1055.51 1469.03 L1055.51 1465.19 L1059.73 1465.19 Q1063.18 1465.19 1065.01 1463.82 Q1066.83 1462.43 1066.83 1459.84 Q1066.83 1457.18 1064.94 1455.77 Q1063.06 1454.33 1059.54 1454.33 Q1057.62 1454.33 1055.42 1454.75 Q1053.22 1455.16 1050.58 1456.04 L1050.58 1451.88 Q1053.25 1451.14 1055.56 1450.77 Q1057.9 1450.39 1059.96 1450.39 Q1065.28 1450.39 1068.38 1452.83 Q1071.49 1455.23 1071.49 1459.35 Q1071.49 1462.22 1069.84 1464.21 Q1068.2 1466.18 1065.17 1466.95 Z" fill="#000000" fill-rule="nonzero" fill-opacity="1" /><path clip-path="url(#clip730)" d="M1094.01 1455.09 L1082.2 1473.54 L1094.01 1473.54 L1094.01 1455.09 M1092.78 1451.02 L1098.66 1451.02 L1098.66 1473.54 L1103.59 1473.54 L1103.59 1477.43 L1098.66 1477.43 L1098.66 1485.58 L1094.01 1485.58 L1094.01 1477.43 L1078.41 1477.43 L1078.41 1472.92 L1092.78 1451.02 Z" fill="#000000" fill-rule="nonzero" fill-opacity="1" /><path clip-path="url(#clip730)" d="M1121.32 1469.17 Q1117.99 1469.17 1116.07 1470.95 Q1114.17 1472.73 1114.17 1475.86 Q1114.17 1478.98 1116.07 1480.77 Q1117.99 1482.55 1121.32 1482.55 Q1124.66 1482.55 1126.58 1480.77 Q1128.5 1478.96 1128.5 1475.86 Q1128.5 1472.73 1126.58 1470.95 Q1124.68 1469.17 1121.32 1469.17 M1116.65 1467.18 Q1113.64 1466.44 1111.95 1464.38 Q1110.28 1462.32 1110.28 1459.35 Q1110.28 1455.21 1113.22 1452.8 Q1116.19 1450.39 1121.32 1450.39 Q1126.49 1450.39 1129.43 1452.8 Q1132.37 1455.21 1132.37 1459.35 Q1132.37 1462.32 1130.68 1464.38 Q1129.01 1466.44 1126.02 1467.18 Q1129.4 1467.96 1131.28 1470.26 Q1133.18 1472.55 1133.18 1475.86 Q1133.18 1480.88 1130.1 1483.57 Q1127.04 1486.25 1121.32 1486.25 Q1115.61 1486.25 1112.53 1483.57 Q1109.47 1480.88 1109.47 1475.86 Q1109.47 1472.55 1111.37 1470.26 Q1113.27 1467.96 1116.65 1467.18 M1114.94 1459.79 Q1114.94 1462.48 1116.6 1463.98 Q1118.29 1465.49 1121.32 1465.49 Q1124.33 1465.49 1126.02 1463.98 Q1127.74 1462.48 1127.74 1459.79 Q1127.74 1457.11 1126.02 1455.6 Q1124.33 1454.1 1121.32 1454.1 Q1118.29 1454.1 1116.6 1455.6 Q1114.94 1457.11 1114.94 1459.79 Z" fill="#000000" fill-rule="nonzero" fill-opacity="1" /><path clip-path="url(#clip730)" d="M1141.49 1479.7 L1146.37 1479.7 L1146.37 1485.58 L1141.49 1485.58 L1141.49 1479.7 Z" fill="#000000" fill-rule="nonzero" fill-opacity="1" /><path clip-path="url(#clip730)" d="M1166.56 1454.1 Q1162.94 1454.1 1161.12 1457.66 Q1159.31 1461.2 1159.31 1468.33 Q1159.31 1475.44 1161.12 1479.01 Q1162.94 1482.55 1166.56 1482.55 Q1170.19 1482.55 1172 1479.01 Q1173.82 1475.44 1173.82 1468.33 Q1173.82 1461.2 1172 1457.66 Q1170.19 1454.1 1166.56 1454.1 M1166.56 1450.39 Q1172.37 1450.39 1175.42 1455 Q1178.5 1459.58 1178.5 1468.33 Q1178.5 1477.06 1175.42 1481.67 Q1172.37 1486.25 1166.56 1486.25 Q1160.75 1486.25 1157.67 1481.67 Q1154.61 1477.06 1154.61 1468.33 Q1154.61 1459.58 1157.67 1455 Q1160.75 1450.39 1166.56 1450.39 Z" fill="#000000" fill-rule="nonzero" fill-opacity="1" /><path clip-path="url(#clip730)" d="M1420.94 1466.95 Q1424.3 1467.66 1426.17 1469.93 Q1428.07 1472.2 1428.07 1475.53 Q1428.07 1480.65 1424.55 1483.45 Q1421.03 1486.25 1414.55 1486.25 Q1412.38 1486.25 1410.06 1485.81 Q1407.77 1485.39 1405.32 1484.54 L1405.32 1480.02 Q1407.26 1481.16 1409.57 1481.74 Q1411.89 1482.32 1414.41 1482.32 Q1418.81 1482.32 1421.1 1480.58 Q1423.42 1478.84 1423.42 1475.53 Q1423.42 1472.48 1421.26 1470.77 Q1419.13 1469.03 1415.32 1469.03 L1411.29 1469.03 L1411.29 1465.19 L1415.5 1465.19 Q1418.95 1465.19 1420.78 1463.82 Q1422.61 1462.43 1422.61 1459.84 Q1422.61 1457.18 1420.71 1455.77 Q1418.83 1454.33 1415.32 1454.33 Q1413.39 1454.33 1411.2 1454.75 Q1409 1455.16 1406.36 1456.04 L1406.36 1451.88 Q1409.02 1451.14 1411.33 1450.77 Q1413.67 1450.39 1415.73 1450.39 Q1421.06 1450.39 1424.16 1452.83 Q1427.26 1455.23 1427.26 1459.35 Q1427.26 1462.22 1425.62 1464.21 Q1423.97 1466.18 1420.94 1466.95 Z" fill="#000000" fill-rule="nonzero" fill-opacity="1" /><path clip-path="url(#clip730)" d="M1449.78 1455.09 L1437.98 1473.54 L1449.78 1473.54 L1449.78 1455.09 M1448.56 1451.02 L1454.44 1451.02 L1454.44 1473.54 L1459.37 1473.54 L1459.37 1477.43 L1454.44 1477.43 L1454.44 1485.58 L1449.78 1485.58 L1449.78 1477.43 L1434.18 1477.43 L1434.18 1472.92 L1448.56 1451.02 Z" fill="#000000" fill-rule="nonzero" fill-opacity="1" /><path clip-path="url(#clip730)" d="M1477.1 1469.17 Q1473.76 1469.17 1471.84 1470.95 Q1469.94 1472.73 1469.94 1475.86 Q1469.94 1478.98 1471.84 1480.77 Q1473.76 1482.55 1477.1 1482.55 Q1480.43 1482.55 1482.35 1480.77 Q1484.27 1478.96 1484.27 1475.86 Q1484.27 1472.73 1482.35 1470.95 Q1480.45 1469.17 1477.1 1469.17 M1472.42 1467.18 Q1469.41 1466.44 1467.72 1464.38 Q1466.06 1462.32 1466.06 1459.35 Q1466.06 1455.21 1469 1452.8 Q1471.96 1450.39 1477.1 1450.39 Q1482.26 1450.39 1485.2 1452.8 Q1488.14 1455.21 1488.14 1459.35 Q1488.14 1462.32 1486.45 1464.38 Q1484.78 1466.44 1481.8 1467.18 Q1485.18 1467.96 1487.05 1470.26 Q1488.95 1472.55 1488.95 1475.86 Q1488.95 1480.88 1485.87 1483.57 Q1482.82 1486.25 1477.1 1486.25 Q1471.38 1486.25 1468.3 1483.57 Q1465.25 1480.88 1465.25 1475.86 Q1465.25 1472.55 1467.14 1470.26 Q1469.04 1467.96 1472.42 1467.18 M1470.71 1459.79 Q1470.71 1462.48 1472.38 1463.98 Q1474.07 1465.49 1477.1 1465.49 Q1480.11 1465.49 1481.8 1463.98 Q1483.51 1462.48 1483.51 1459.79 Q1483.51 1457.11 1481.8 1455.6 Q1480.11 1454.1 1477.1 1454.1 Q1474.07 1454.1 1472.38 1455.6 Q1470.71 1457.11 1470.71 1459.79 Z" fill="#000000" fill-rule="nonzero" fill-opacity="1" /><path clip-path="url(#clip730)" d="M1497.26 1479.7 L1502.14 1479.7 L1502.14 1485.58 L1497.26 1485.58 L1497.26 1479.7 Z" fill="#000000" fill-rule="nonzero" fill-opacity="1" /><path clip-path="url(#clip730)" d="M1512.38 1451.02 L1530.73 1451.02 L1530.73 1454.96 L1516.66 1454.96 L1516.66 1463.43 Q1517.68 1463.08 1518.69 1462.92 Q1519.71 1462.73 1520.73 1462.73 Q1526.52 1462.73 1529.9 1465.9 Q1533.28 1469.08 1533.28 1474.49 Q1533.28 1480.07 1529.81 1483.17 Q1526.33 1486.25 1520.01 1486.25 Q1517.84 1486.25 1515.57 1485.88 Q1513.32 1485.51 1510.92 1484.77 L1510.92 1480.07 Q1513 1481.2 1515.22 1481.76 Q1517.44 1482.32 1519.92 1482.32 Q1523.93 1482.32 1526.26 1480.21 Q1528.6 1478.1 1528.6 1474.49 Q1528.6 1470.88 1526.26 1468.77 Q1523.93 1466.67 1519.92 1466.67 Q1518.05 1466.67 1516.17 1467.08 Q1514.32 1467.5 1512.38 1468.38 L1512.38 1451.02 Z" fill="#000000" fill-rule="nonzero" fill-opacity="1" /><path clip-path="url(#clip730)" d="M1775.72 1466.95 Q1779.08 1467.66 1780.95 1469.93 Q1782.85 1472.2 1782.85 1475.53 Q1782.85 1480.65 1779.33 1483.45 Q1775.81 1486.25 1769.33 1486.25 Q1767.15 1486.25 1764.84 1485.81 Q1762.55 1485.39 1760.09 1484.54 L1760.09 1480.02 Q1762.04 1481.16 1764.35 1481.74 Q1766.67 1482.32 1769.19 1482.32 Q1773.59 1482.32 1775.88 1480.58 Q1778.2 1478.84 1778.2 1475.53 Q1778.2 1472.48 1776.04 1470.77 Q1773.91 1469.03 1770.09 1469.03 L1766.07 1469.03 L1766.07 1465.19 L1770.28 1465.19 Q1773.73 1465.19 1775.56 1463.82 Q1777.39 1462.43 1777.39 1459.84 Q1777.39 1457.18 1775.49 1455.77 Q1773.61 1454.33 1770.09 1454.33 Q1768.17 1454.33 1765.97 1454.75 Q1763.77 1455.16 1761.14 1456.04 L1761.14 1451.88 Q1763.8 1451.14 1766.11 1450.77 Q1768.45 1450.39 1770.51 1450.39 Q1775.83 1450.39 1778.94 1452.83 Q1782.04 1455.23 1782.04 1459.35 Q1782.04 1462.22 1780.39 1464.21 Q1778.75 1466.18 1775.72 1466.95 Z" fill="#000000" fill-rule="nonzero" fill-opacity="1" /><path clip-path="url(#clip730)" d="M1804.56 1455.09 L1792.76 1473.54 L1804.56 1473.54 L1804.56 1455.09 M1803.33 1451.02 L1809.21 1451.02 L1809.21 1473.54 L1814.14 1473.54 L1814.14 1477.43 L1809.21 1477.43 L1809.21 1485.58 L1804.56 1485.58 L1804.56 1477.43 L1788.96 1477.43 L1788.96 1472.92 L1803.33 1451.02 Z" fill="#000000" fill-rule="nonzero" fill-opacity="1" /><path clip-path="url(#clip730)" d="M1822.01 1484.86 L1822.01 1480.6 Q1823.77 1481.44 1825.58 1481.88 Q1827.38 1482.32 1829.12 1482.32 Q1833.75 1482.32 1836.18 1479.21 Q1838.63 1476.09 1838.98 1469.75 Q1837.64 1471.74 1835.58 1472.8 Q1833.52 1473.87 1831.02 1473.87 Q1825.83 1473.87 1822.8 1470.74 Q1819.79 1467.59 1819.79 1462.15 Q1819.79 1456.83 1822.94 1453.61 Q1826.09 1450.39 1831.32 1450.39 Q1837.32 1450.39 1840.46 1455 Q1843.63 1459.58 1843.63 1468.33 Q1843.63 1476.51 1839.75 1481.39 Q1835.88 1486.25 1829.33 1486.25 Q1827.57 1486.25 1825.76 1485.9 Q1823.96 1485.56 1822.01 1484.86 M1831.32 1470.21 Q1834.47 1470.21 1836.3 1468.06 Q1838.15 1465.9 1838.15 1462.15 Q1838.15 1458.43 1836.3 1456.27 Q1834.47 1454.1 1831.32 1454.1 Q1828.17 1454.1 1826.32 1456.27 Q1824.49 1458.43 1824.49 1462.15 Q1824.49 1465.9 1826.32 1468.06 Q1828.17 1470.21 1831.32 1470.21 Z" fill="#000000" fill-rule="nonzero" fill-opacity="1" /><path clip-path="url(#clip730)" d="M1852.04 1479.7 L1856.92 1479.7 L1856.92 1485.58 L1852.04 1485.58 L1852.04 1479.7 Z" fill="#000000" fill-rule="nonzero" fill-opacity="1" /><path clip-path="url(#clip730)" d="M1877.11 1454.1 Q1873.5 1454.1 1871.67 1457.66 Q1869.86 1461.2 1869.86 1468.33 Q1869.86 1475.44 1871.67 1479.01 Q1873.5 1482.55 1877.11 1482.55 Q1880.74 1482.55 1882.55 1479.01 Q1884.38 1475.44 1884.38 1468.33 Q1884.38 1461.2 1882.55 1457.66 Q1880.74 1454.1 1877.11 1454.1 M1877.11 1450.39 Q1882.92 1450.39 1885.97 1455 Q1889.05 1459.58 1889.05 1468.33 Q1889.05 1477.06 1885.97 1481.67 Q1882.92 1486.25 1877.11 1486.25 Q1871.3 1486.25 1868.22 1481.67 Q1865.16 1477.06 1865.16 1468.33 Q1865.16 1459.58 1868.22 1455 Q1871.3 1450.39 1877.11 1450.39 Z" fill="#000000" fill-rule="nonzero" fill-opacity="1" /><path clip-path="url(#clip730)" d="M2131.49 1466.95 Q2134.85 1467.66 2136.72 1469.93 Q2138.62 1472.2 2138.62 1475.53 Q2138.62 1480.65 2135.1 1483.45 Q2131.58 1486.25 2125.1 1486.25 Q2122.93 1486.25 2120.61 1485.81 Q2118.32 1485.39 2115.87 1484.54 L2115.87 1480.02 Q2117.81 1481.16 2120.13 1481.74 Q2122.44 1482.32 2124.96 1482.32 Q2129.36 1482.32 2131.65 1480.58 Q2133.97 1478.84 2133.97 1475.53 Q2133.97 1472.48 2131.82 1470.77 Q2129.69 1469.03 2125.87 1469.03 L2121.84 1469.03 L2121.84 1465.19 L2126.05 1465.19 Q2129.5 1465.19 2131.33 1463.82 Q2133.16 1462.43 2133.16 1459.84 Q2133.16 1457.18 2131.26 1455.77 Q2129.39 1454.33 2125.87 1454.33 Q2123.95 1454.33 2121.75 1454.75 Q2119.55 1455.16 2116.91 1456.04 L2116.91 1451.88 Q2119.57 1451.14 2121.89 1450.77 Q2124.22 1450.39 2126.28 1450.39 Q2131.61 1450.39 2134.71 1452.83 Q2137.81 1455.23 2137.81 1459.35 Q2137.81 1462.22 2136.17 1464.21 Q2134.52 1466.18 2131.49 1466.95 Z" fill="#000000" fill-rule="nonzero" fill-opacity="1" /><path clip-path="url(#clip730)" d="M2160.33 1455.09 L2148.53 1473.54 L2160.33 1473.54 L2160.33 1455.09 M2159.11 1451.02 L2164.99 1451.02 L2164.99 1473.54 L2169.92 1473.54 L2169.92 1477.43 L2164.99 1477.43 L2164.99 1485.58 L2160.33 1485.58 L2160.33 1477.43 L2144.73 1477.43 L2144.73 1472.92 L2159.11 1451.02 Z" fill="#000000" fill-rule="nonzero" fill-opacity="1" /><path clip-path="url(#clip730)" d="M2177.79 1484.86 L2177.79 1480.6 Q2179.55 1481.44 2181.35 1481.88 Q2183.16 1482.32 2184.89 1482.32 Q2189.52 1482.32 2191.95 1479.21 Q2194.41 1476.09 2194.76 1469.75 Q2193.41 1471.74 2191.35 1472.8 Q2189.29 1473.87 2186.79 1473.87 Q2181.61 1473.87 2178.58 1470.74 Q2175.57 1467.59 2175.57 1462.15 Q2175.57 1456.83 2178.71 1453.61 Q2181.86 1450.39 2187.09 1450.39 Q2193.09 1450.39 2196.24 1455 Q2199.41 1459.58 2199.41 1468.33 Q2199.41 1476.51 2195.52 1481.39 Q2191.65 1486.25 2185.1 1486.25 Q2183.34 1486.25 2181.54 1485.9 Q2179.73 1485.56 2177.79 1484.86 M2187.09 1470.21 Q2190.24 1470.21 2192.07 1468.06 Q2193.92 1465.9 2193.92 1462.15 Q2193.92 1458.43 2192.07 1456.27 Q2190.24 1454.1 2187.09 1454.1 Q2183.95 1454.1 2182.09 1456.27 Q2180.26 1458.43 2180.26 1462.15 Q2180.26 1465.9 2182.09 1468.06 Q2183.95 1470.21 2187.09 1470.21 Z" fill="#000000" fill-rule="nonzero" fill-opacity="1" /><path clip-path="url(#clip730)" d="M2207.81 1479.7 L2212.7 1479.7 L2212.7 1485.58 L2207.81 1485.58 L2207.81 1479.7 Z" fill="#000000" fill-rule="nonzero" fill-opacity="1" /><path clip-path="url(#clip730)" d="M2222.93 1451.02 L2241.28 1451.02 L2241.28 1454.96 L2227.21 1454.96 L2227.21 1463.43 Q2228.23 1463.08 2229.25 1462.92 Q2230.26 1462.73 2231.28 1462.73 Q2237.07 1462.73 2240.45 1465.9 Q2243.83 1469.08 2243.83 1474.49 Q2243.83 1480.07 2240.36 1483.17 Q2236.88 1486.25 2230.57 1486.25 Q2228.39 1486.25 2226.12 1485.88 Q2223.88 1485.51 2221.47 1484.77 L2221.47 1480.07 Q2223.55 1481.2 2225.77 1481.76 Q2228 1482.32 2230.47 1482.32 Q2234.48 1482.32 2236.82 1480.21 Q2239.15 1478.1 2239.15 1474.49 Q2239.15 1470.88 2236.82 1468.77 Q2234.48 1466.67 2230.47 1466.67 Q2228.6 1466.67 2226.72 1467.08 Q2224.87 1467.5 2222.93 1468.38 L2222.93 1451.02 Z" fill="#000000" fill-rule="nonzero" fill-opacity="1" /><path clip-path="url(#clip730)" d="M1335.96 1545.76 Q1338.03 1546.46 1339.97 1548.76 Q1341.94 1551.05 1343.92 1555.06 L1350.44 1568.04 L1343.53 1568.04 L1337.46 1555.85 Q1335.1 1551.08 1332.87 1549.52 Q1330.68 1547.96 1326.86 1547.96 L1319.85 1547.96 L1319.85 1568.04 L1313.42 1568.04 L1313.42 1520.52 L1327.94 1520.52 Q1336.09 1520.52 1340.1 1523.93 Q1344.11 1527.34 1344.11 1534.21 Q1344.11 1538.7 1342.01 1541.66 Q1339.94 1544.62 1335.96 1545.76 M1319.85 1525.81 L1319.85 1542.68 L1327.94 1542.68 Q1332.59 1542.68 1334.94 1540.54 Q1337.33 1538.38 1337.33 1534.21 Q1337.33 1530.04 1334.94 1527.94 Q1332.59 1525.81 1327.94 1525.81 L1319.85 1525.81 Z" fill="#000000" fill-rule="nonzero" fill-opacity="1" /><path clip-path="url(#clip730)" d="M1386.03 1548.76 L1386.03 1551.62 L1359.1 1551.62 Q1359.48 1557.67 1362.73 1560.85 Q1366.01 1564 1371.83 1564 Q1375.2 1564 1378.35 1563.17 Q1381.54 1562.35 1384.66 1560.69 L1384.66 1566.23 Q1381.51 1567.57 1378.2 1568.27 Q1374.89 1568.97 1371.48 1568.97 Q1362.95 1568.97 1357.95 1564 Q1352.99 1559.04 1352.99 1550.57 Q1352.99 1541.82 1357.7 1536.69 Q1362.44 1531.54 1370.46 1531.54 Q1377.65 1531.54 1381.82 1536.18 Q1386.03 1540.8 1386.03 1548.76 M1380.17 1547.04 Q1380.11 1542.23 1377.46 1539.37 Q1374.85 1536.5 1370.53 1536.5 Q1365.62 1536.5 1362.66 1539.27 Q1359.74 1542.04 1359.29 1547.07 L1380.17 1547.04 Z" fill="#000000" fill-rule="nonzero" fill-opacity="1" /><polyline clip-path="url(#clip732)" style="stroke:#000000; stroke-linecap:round; stroke-linejoin:round; stroke-width:2; stroke-opacity:0.1; fill:none" points="346.694,1214.11 2352.76,1214.11 "/>
<polyline clip-path="url(#clip732)" style="stroke:#000000; stroke-linecap:round; stroke-linejoin:round; stroke-width:2; stroke-opacity:0.1; fill:none" points="346.694,893.373 2352.76,893.373 "/>
<polyline clip-path="url(#clip732)" style="stroke:#000000; stroke-linecap:round; stroke-linejoin:round; stroke-width:2; stroke-opacity:0.1; fill:none" points="346.694,572.636 2352.76,572.636 "/>
<polyline clip-path="url(#clip732)" style="stroke:#000000; stroke-linecap:round; stroke-linejoin:round; stroke-width:2; stroke-opacity:0.1; fill:none" points="346.694,251.899 2352.76,251.899 "/>
<polyline clip-path="url(#clip730)" style="stroke:#000000; stroke-linecap:round; stroke-linejoin:round; stroke-width:4; stroke-opacity:1; fill:none" points="346.694,1423.18 346.694,47.2441 "/>
<polyline clip-path="url(#clip730)" style="stroke:#000000; stroke-linecap:round; stroke-linejoin:round; stroke-width:4; stroke-opacity:1; fill:none" points="346.694,1214.11 365.592,1214.11 "/>
<polyline clip-path="url(#clip730)" style="stroke:#000000; stroke-linecap:round; stroke-linejoin:round; stroke-width:4; stroke-opacity:1; fill:none" points="346.694,893.373 365.592,893.373 "/>
<polyline clip-path="url(#clip730)" style="stroke:#000000; stroke-linecap:round; stroke-linejoin:round; stroke-width:4; stroke-opacity:1; fill:none" points="346.694,572.636 365.592,572.636 "/>
<polyline clip-path="url(#clip730)" style="stroke:#000000; stroke-linecap:round; stroke-linejoin:round; stroke-width:4; stroke-opacity:1; fill:none" points="346.694,251.899 365.592,251.899 "/>
<path clip-path="url(#clip730)" d="M114.26 1214.56 L143.936 1214.56 L143.936 1218.5 L114.26 1218.5 L114.26 1214.56 Z" fill="#000000" fill-rule="nonzero" fill-opacity="1" /><path clip-path="url(#clip730)" d="M164.028 1199.91 Q160.417 1199.91 158.589 1203.47 Q156.783 1207.02 156.783 1214.15 Q156.783 1221.25 158.589 1224.82 Q160.417 1228.36 164.028 1228.36 Q167.663 1228.36 169.468 1224.82 Q171.297 1221.25 171.297 1214.15 Q171.297 1207.02 169.468 1203.47 Q167.663 1199.91 164.028 1199.91 M164.028 1196.21 Q169.839 1196.21 172.894 1200.81 Q175.973 1205.4 175.973 1214.15 Q175.973 1222.87 172.894 1227.48 Q169.839 1232.06 164.028 1232.06 Q158.218 1232.06 155.14 1227.48 Q152.084 1222.87 152.084 1214.15 Q152.084 1205.4 155.14 1200.81 Q158.218 1196.21 164.028 1196.21 Z" fill="#000000" fill-rule="nonzero" fill-opacity="1" /><path clip-path="url(#clip730)" d="M184.19 1225.51 L189.075 1225.51 L189.075 1231.39 L184.19 1231.39 L184.19 1225.51 Z" fill="#000000" fill-rule="nonzero" fill-opacity="1" /><path clip-path="url(#clip730)" d="M209.26 1199.91 Q205.649 1199.91 203.82 1203.47 Q202.014 1207.02 202.014 1214.15 Q202.014 1221.25 203.82 1224.82 Q205.649 1228.36 209.26 1228.36 Q212.894 1228.36 214.699 1224.82 Q216.528 1221.25 216.528 1214.15 Q216.528 1207.02 214.699 1203.47 Q212.894 1199.91 209.26 1199.91 M209.26 1196.21 Q215.07 1196.21 218.125 1200.81 Q221.204 1205.4 221.204 1214.15 Q221.204 1222.87 218.125 1227.48 Q215.07 1232.06 209.26 1232.06 Q203.449 1232.06 200.371 1227.48 Q197.315 1222.87 197.315 1214.15 Q197.315 1205.4 200.371 1200.81 Q203.449 1196.21 209.26 1196.21 Z" fill="#000000" fill-rule="nonzero" fill-opacity="1" /><path clip-path="url(#clip730)" d="M239.422 1199.91 Q235.81 1199.91 233.982 1203.47 Q232.176 1207.02 232.176 1214.15 Q232.176 1221.25 233.982 1224.82 Q235.81 1228.36 239.422 1228.36 Q243.056 1228.36 244.861 1224.82 Q246.69 1221.25 246.69 1214.15 Q246.69 1207.02 244.861 1203.47 Q243.056 1199.91 239.422 1199.91 M239.422 1196.21 Q245.232 1196.21 248.287 1200.81 Q251.366 1205.4 251.366 1214.15 Q251.366 1222.87 248.287 1227.48 Q245.232 1232.06 239.422 1232.06 Q233.611 1232.06 230.533 1227.48 Q227.477 1222.87 227.477 1214.15 Q227.477 1205.4 230.533 1200.81 Q233.611 1196.21 239.422 1196.21 Z" fill="#000000" fill-rule="nonzero" fill-opacity="1" /><path clip-path="url(#clip730)" d="M269.583 1199.91 Q265.972 1199.91 264.144 1203.47 Q262.338 1207.02 262.338 1214.15 Q262.338 1221.25 264.144 1224.82 Q265.972 1228.36 269.583 1228.36 Q273.218 1228.36 275.023 1224.82 Q276.852 1221.25 276.852 1214.15 Q276.852 1207.02 275.023 1203.47 Q273.218 1199.91 269.583 1199.91 M269.583 1196.21 Q275.394 1196.21 278.449 1200.81 Q281.528 1205.4 281.528 1214.15 Q281.528 1222.87 278.449 1227.48 Q275.394 1232.06 269.583 1232.06 Q263.773 1232.06 260.695 1227.48 Q257.639 1222.87 257.639 1214.15 Q257.639 1205.4 260.695 1200.81 Q263.773 1196.21 269.583 1196.21 Z" fill="#000000" fill-rule="nonzero" fill-opacity="1" /><path clip-path="url(#clip730)" d="M289.792 1196.83 L308.148 1196.83 L308.148 1200.77 L294.074 1200.77 L294.074 1209.24 Q295.093 1208.89 296.111 1208.73 Q297.13 1208.54 298.148 1208.54 Q303.935 1208.54 307.315 1211.71 Q310.694 1214.89 310.694 1220.3 Q310.694 1225.88 307.222 1228.98 Q303.75 1232.06 297.43 1232.06 Q295.255 1232.06 292.986 1231.69 Q290.741 1231.32 288.333 1230.58 L288.333 1225.88 Q290.417 1227.02 292.639 1227.57 Q294.861 1228.13 297.338 1228.13 Q301.342 1228.13 303.68 1226.02 Q306.018 1223.91 306.018 1220.3 Q306.018 1216.69 303.68 1214.59 Q301.342 1212.48 297.338 1212.48 Q295.463 1212.48 293.588 1212.9 Q291.736 1213.31 289.792 1214.19 L289.792 1196.83 Z" fill="#000000" fill-rule="nonzero" fill-opacity="1" /><path clip-path="url(#clip730)" d="M163.033 879.172 Q159.422 879.172 157.593 882.737 Q155.788 886.278 155.788 893.408 Q155.788 900.514 157.593 904.079 Q159.422 907.621 163.033 907.621 Q166.667 907.621 168.473 904.079 Q170.302 900.514 170.302 893.408 Q170.302 886.278 168.473 882.737 Q166.667 879.172 163.033 879.172 M163.033 875.468 Q168.843 875.468 171.899 880.075 Q174.977 884.658 174.977 893.408 Q174.977 902.135 171.899 906.741 Q168.843 911.325 163.033 911.325 Q157.223 911.325 154.144 906.741 Q151.089 902.135 151.089 893.408 Q151.089 884.658 154.144 880.075 Q157.223 875.468 163.033 875.468 Z" fill="#000000" fill-rule="nonzero" fill-opacity="1" /><path clip-path="url(#clip730)" d="M183.195 904.774 L188.079 904.774 L188.079 910.653 L183.195 910.653 L183.195 904.774 Z" fill="#000000" fill-rule="nonzero" fill-opacity="1" /><path clip-path="url(#clip730)" d="M208.264 879.172 Q204.653 879.172 202.824 882.737 Q201.019 886.278 201.019 893.408 Q201.019 900.514 202.824 904.079 Q204.653 907.621 208.264 907.621 Q211.899 907.621 213.704 904.079 Q215.533 900.514 215.533 893.408 Q215.533 886.278 213.704 882.737 Q211.899 879.172 208.264 879.172 M208.264 875.468 Q214.074 875.468 217.13 880.075 Q220.209 884.658 220.209 893.408 Q220.209 902.135 217.13 906.741 Q214.074 911.325 208.264 911.325 Q202.454 911.325 199.375 906.741 Q196.32 902.135 196.32 893.408 Q196.32 884.658 199.375 880.075 Q202.454 875.468 208.264 875.468 Z" fill="#000000" fill-rule="nonzero" fill-opacity="1" /><path clip-path="url(#clip730)" d="M238.426 879.172 Q234.815 879.172 232.986 882.737 Q231.181 886.278 231.181 893.408 Q231.181 900.514 232.986 904.079 Q234.815 907.621 238.426 907.621 Q242.06 907.621 243.866 904.079 Q245.695 900.514 245.695 893.408 Q245.695 886.278 243.866 882.737 Q242.06 879.172 238.426 879.172 M238.426 875.468 Q244.236 875.468 247.292 880.075 Q250.371 884.658 250.371 893.408 Q250.371 902.135 247.292 906.741 Q244.236 911.325 238.426 911.325 Q232.616 911.325 229.537 906.741 Q226.482 902.135 226.482 893.408 Q226.482 884.658 229.537 880.075 Q232.616 875.468 238.426 875.468 Z" fill="#000000" fill-rule="nonzero" fill-opacity="1" /><path clip-path="url(#clip730)" d="M268.588 879.172 Q264.977 879.172 263.148 882.737 Q261.343 886.278 261.343 893.408 Q261.343 900.514 263.148 904.079 Q264.977 907.621 268.588 907.621 Q272.222 907.621 274.028 904.079 Q275.857 900.514 275.857 893.408 Q275.857 886.278 274.028 882.737 Q272.222 879.172 268.588 879.172 M268.588 875.468 Q274.398 875.468 277.454 880.075 Q280.532 884.658 280.532 893.408 Q280.532 902.135 277.454 906.741 Q274.398 911.325 268.588 911.325 Q262.778 911.325 259.699 906.741 Q256.644 902.135 256.644 893.408 Q256.644 884.658 259.699 880.075 Q262.778 875.468 268.588 875.468 Z" fill="#000000" fill-rule="nonzero" fill-opacity="1" /><path clip-path="url(#clip730)" d="M298.75 879.172 Q295.139 879.172 293.31 882.737 Q291.505 886.278 291.505 893.408 Q291.505 900.514 293.31 904.079 Q295.139 907.621 298.75 907.621 Q302.384 907.621 304.19 904.079 Q306.018 900.514 306.018 893.408 Q306.018 886.278 304.19 882.737 Q302.384 879.172 298.75 879.172 M298.75 875.468 Q304.56 875.468 307.616 880.075 Q310.694 884.658 310.694 893.408 Q310.694 902.135 307.616 906.741 Q304.56 911.325 298.75 911.325 Q292.94 911.325 289.861 906.741 Q286.806 902.135 286.806 893.408 Q286.806 884.658 289.861 880.075 Q292.94 875.468 298.75 875.468 Z" fill="#000000" fill-rule="nonzero" fill-opacity="1" /><path clip-path="url(#clip730)" d="M164.028 558.435 Q160.417 558.435 158.589 561.999 Q156.783 565.541 156.783 572.671 Q156.783 579.777 158.589 583.342 Q160.417 586.884 164.028 586.884 Q167.663 586.884 169.468 583.342 Q171.297 579.777 171.297 572.671 Q171.297 565.541 169.468 561.999 Q167.663 558.435 164.028 558.435 M164.028 554.731 Q169.839 554.731 172.894 559.337 Q175.973 563.921 175.973 572.671 Q175.973 581.397 172.894 586.004 Q169.839 590.587 164.028 590.587 Q158.218 590.587 155.14 586.004 Q152.084 581.397 152.084 572.671 Q152.084 563.921 155.14 559.337 Q158.218 554.731 164.028 554.731 Z" fill="#000000" fill-rule="nonzero" fill-opacity="1" /><path clip-path="url(#clip730)" d="M184.19 584.036 L189.075 584.036 L189.075 589.916 L184.19 589.916 L184.19 584.036 Z" fill="#000000" fill-rule="nonzero" fill-opacity="1" /><path clip-path="url(#clip730)" d="M209.26 558.435 Q205.649 558.435 203.82 561.999 Q202.014 565.541 202.014 572.671 Q202.014 579.777 203.82 583.342 Q205.649 586.884 209.26 586.884 Q212.894 586.884 214.699 583.342 Q216.528 579.777 216.528 572.671 Q216.528 565.541 214.699 561.999 Q212.894 558.435 209.26 558.435 M209.26 554.731 Q215.07 554.731 218.125 559.337 Q221.204 563.921 221.204 572.671 Q221.204 581.397 218.125 586.004 Q215.07 590.587 209.26 590.587 Q203.449 590.587 200.371 586.004 Q197.315 581.397 197.315 572.671 Q197.315 563.921 200.371 559.337 Q203.449 554.731 209.26 554.731 Z" fill="#000000" fill-rule="nonzero" fill-opacity="1" /><path clip-path="url(#clip730)" d="M239.422 558.435 Q235.81 558.435 233.982 561.999 Q232.176 565.541 232.176 572.671 Q232.176 579.777 233.982 583.342 Q235.81 586.884 239.422 586.884 Q243.056 586.884 244.861 583.342 Q246.69 579.777 246.69 572.671 Q246.69 565.541 244.861 561.999 Q243.056 558.435 239.422 558.435 M239.422 554.731 Q245.232 554.731 248.287 559.337 Q251.366 563.921 251.366 572.671 Q251.366 581.397 248.287 586.004 Q245.232 590.587 239.422 590.587 Q233.611 590.587 230.533 586.004 Q227.477 581.397 227.477 572.671 Q227.477 563.921 230.533 559.337 Q233.611 554.731 239.422 554.731 Z" fill="#000000" fill-rule="nonzero" fill-opacity="1" /><path clip-path="url(#clip730)" d="M269.583 558.435 Q265.972 558.435 264.144 561.999 Q262.338 565.541 262.338 572.671 Q262.338 579.777 264.144 583.342 Q265.972 586.884 269.583 586.884 Q273.218 586.884 275.023 583.342 Q276.852 579.777 276.852 572.671 Q276.852 565.541 275.023 561.999 Q273.218 558.435 269.583 558.435 M269.583 554.731 Q275.394 554.731 278.449 559.337 Q281.528 563.921 281.528 572.671 Q281.528 581.397 278.449 586.004 Q275.394 590.587 269.583 590.587 Q263.773 590.587 260.695 586.004 Q257.639 581.397 257.639 572.671 Q257.639 563.921 260.695 559.337 Q263.773 554.731 269.583 554.731 Z" fill="#000000" fill-rule="nonzero" fill-opacity="1" /><path clip-path="url(#clip730)" d="M289.792 555.356 L308.148 555.356 L308.148 559.291 L294.074 559.291 L294.074 567.763 Q295.093 567.416 296.111 567.254 Q297.13 567.069 298.148 567.069 Q303.935 567.069 307.315 570.24 Q310.694 573.411 310.694 578.828 Q310.694 584.407 307.222 587.509 Q303.75 590.587 297.43 590.587 Q295.255 590.587 292.986 590.217 Q290.741 589.846 288.333 589.106 L288.333 584.407 Q290.417 585.541 292.639 586.096 Q294.861 586.652 297.338 586.652 Q301.342 586.652 303.68 584.546 Q306.018 582.439 306.018 578.828 Q306.018 575.217 303.68 573.11 Q301.342 571.004 297.338 571.004 Q295.463 571.004 293.588 571.421 Q291.736 571.837 289.792 572.717 L289.792 555.356 Z" fill="#000000" fill-rule="nonzero" fill-opacity="1" /><path clip-path="url(#clip730)" d="M163.033 237.697 Q159.422 237.697 157.593 241.262 Q155.788 244.804 155.788 251.933 Q155.788 259.04 157.593 262.604 Q159.422 266.146 163.033 266.146 Q166.667 266.146 168.473 262.604 Q170.302 259.04 170.302 251.933 Q170.302 244.804 168.473 241.262 Q166.667 237.697 163.033 237.697 M163.033 233.994 Q168.843 233.994 171.899 238.6 Q174.977 243.183 174.977 251.933 Q174.977 260.66 171.899 265.267 Q168.843 269.85 163.033 269.85 Q157.223 269.85 154.144 265.267 Q151.089 260.66 151.089 251.933 Q151.089 243.183 154.144 238.6 Q157.223 233.994 163.033 233.994 Z" fill="#000000" fill-rule="nonzero" fill-opacity="1" /><path clip-path="url(#clip730)" d="M183.195 263.299 L188.079 263.299 L188.079 269.179 L183.195 269.179 L183.195 263.299 Z" fill="#000000" fill-rule="nonzero" fill-opacity="1" /><path clip-path="url(#clip730)" d="M208.264 237.697 Q204.653 237.697 202.824 241.262 Q201.019 244.804 201.019 251.933 Q201.019 259.04 202.824 262.604 Q204.653 266.146 208.264 266.146 Q211.899 266.146 213.704 262.604 Q215.533 259.04 215.533 251.933 Q215.533 244.804 213.704 241.262 Q211.899 237.697 208.264 237.697 M208.264 233.994 Q214.074 233.994 217.13 238.6 Q220.209 243.183 220.209 251.933 Q220.209 260.66 217.13 265.267 Q214.074 269.85 208.264 269.85 Q202.454 269.85 199.375 265.267 Q196.32 260.66 196.32 251.933 Q196.32 243.183 199.375 238.6 Q202.454 233.994 208.264 233.994 Z" fill="#000000" fill-rule="nonzero" fill-opacity="1" /><path clip-path="url(#clip730)" d="M238.426 237.697 Q234.815 237.697 232.986 241.262 Q231.181 244.804 231.181 251.933 Q231.181 259.04 232.986 262.604 Q234.815 266.146 238.426 266.146 Q242.06 266.146 243.866 262.604 Q245.695 259.04 245.695 251.933 Q245.695 244.804 243.866 241.262 Q242.06 237.697 238.426 237.697 M238.426 233.994 Q244.236 233.994 247.292 238.6 Q250.371 243.183 250.371 251.933 Q250.371 260.66 247.292 265.267 Q244.236 269.85 238.426 269.85 Q232.616 269.85 229.537 265.267 Q226.482 260.66 226.482 251.933 Q226.482 243.183 229.537 238.6 Q232.616 233.994 238.426 233.994 Z" fill="#000000" fill-rule="nonzero" fill-opacity="1" /><path clip-path="url(#clip730)" d="M259.398 265.243 L267.037 265.243 L267.037 238.878 L258.727 240.544 L258.727 236.285 L266.991 234.619 L271.667 234.619 L271.667 265.243 L279.306 265.243 L279.306 269.179 L259.398 269.179 L259.398 265.243 Z" fill="#000000" fill-rule="nonzero" fill-opacity="1" /><path clip-path="url(#clip730)" d="M298.75 237.697 Q295.139 237.697 293.31 241.262 Q291.505 244.804 291.505 251.933 Q291.505 259.04 293.31 262.604 Q295.139 266.146 298.75 266.146 Q302.384 266.146 304.19 262.604 Q306.018 259.04 306.018 251.933 Q306.018 244.804 304.19 241.262 Q302.384 237.697 298.75 237.697 M298.75 233.994 Q304.56 233.994 307.616 238.6 Q310.694 243.183 310.694 251.933 Q310.694 260.66 307.616 265.267 Q304.56 269.85 298.75 269.85 Q292.94 269.85 289.861 265.267 Q286.806 260.66 286.806 251.933 Q286.806 243.183 289.861 238.6 Q292.94 233.994 298.75 233.994 Z" fill="#000000" fill-rule="nonzero" fill-opacity="1" /><path clip-path="url(#clip730)" d="M41.7242 821.658 Q42.4244 819.589 44.7161 817.648 Q47.0077 815.675 51.0181 813.701 L64.0042 807.176 L64.0042 814.083 L51.8138 820.162 Q47.0395 822.518 45.48 824.746 Q43.9204 826.942 43.9204 830.761 L43.9204 837.764 L64.0042 837.764 L64.0042 844.193 L16.4842 844.193 L16.4842 829.679 Q16.4842 821.531 19.8898 817.521 Q23.2955 813.51 30.1704 813.51 Q34.6582 813.51 37.6183 815.611 Q40.5784 817.68 41.7242 821.658 M21.7677 837.764 L38.6368 837.764 L38.6368 829.679 Q38.6368 825.032 36.5043 822.677 Q34.34 820.29 30.1704 820.29 Q26.0009 820.29 23.9002 822.677 Q21.7677 825.032 21.7677 829.679 L21.7677 837.764 Z" fill="#000000" fill-rule="nonzero" fill-opacity="1" /><path clip-path="url(#clip730)" d="M44.7161 771.592 L47.5806 771.592 L47.5806 798.519 Q53.6281 798.137 56.8109 794.89 Q59.9619 791.612 59.9619 785.788 Q59.9619 782.414 59.1344 779.263 Q58.3069 776.08 56.6518 772.961 L62.1899 772.961 Q63.5267 776.112 64.227 779.422 Q64.9272 782.732 64.9272 786.138 Q64.9272 794.668 59.9619 799.665 Q54.9967 804.63 46.5303 804.63 Q37.7774 804.63 32.6531 799.919 Q27.4968 795.177 27.4968 787.156 Q27.4968 779.963 32.1438 775.793 Q36.7589 771.592 44.7161 771.592 M42.9973 777.448 Q38.1912 777.512 35.3266 780.154 Q32.4621 782.764 32.4621 787.092 Q32.4621 791.994 35.2312 794.954 Q38.0002 797.882 43.0292 798.328 L42.9973 777.448 Z" fill="#000000" fill-rule="nonzero" fill-opacity="1" /><path clip-path="url(#clip730)" d="M46.0847 745.779 Q46.0847 752.877 47.7079 755.614 Q49.3312 758.351 53.2461 758.351 Q56.3653 758.351 58.2114 756.314 Q60.0256 754.245 60.0256 750.712 Q60.0256 745.843 56.5881 742.914 Q53.1188 739.954 47.3897 739.954 L46.0847 739.954 L46.0847 745.779 M43.6657 734.098 L64.0042 734.098 L64.0042 739.954 L58.5933 739.954 Q61.8398 741.96 63.3994 744.951 Q64.9272 747.943 64.9272 752.272 Q64.9272 757.747 61.8716 760.993 Q58.7843 764.208 53.6281 764.208 Q47.6125 764.208 44.5569 760.197 Q41.5014 756.155 41.5014 748.166 L41.5014 739.954 L40.9285 739.954 Q36.8862 739.954 34.6901 742.628 Q32.4621 745.27 32.4621 750.076 Q32.4621 753.131 33.1941 756.028 Q33.9262 758.924 35.3903 761.598 L29.9795 761.598 Q28.7381 758.383 28.1334 755.359 Q27.4968 752.336 27.4968 749.471 Q27.4968 741.737 31.5072 737.917 Q35.5176 734.098 43.6657 734.098 Z" fill="#000000" fill-rule="nonzero" fill-opacity="1" /><path clip-path="url(#clip730)" d="M14.479 722.035 L14.479 716.179 L64.0042 716.179 L64.0042 722.035 L14.479 722.035 Z" fill="#000000" fill-rule="nonzero" fill-opacity="1" /><path clip-path="url(#clip730)" d="M14.5426 689.856 Q21.8632 694.121 29.0246 696.19 Q36.186 698.259 43.5384 698.259 Q50.8908 698.259 58.1159 696.19 Q65.3091 694.09 72.5979 689.856 L72.5979 694.949 Q65.1182 699.723 57.8931 702.11 Q50.668 704.466 43.5384 704.466 Q36.4406 704.466 29.2474 702.11 Q22.0542 699.755 14.5426 694.949 L14.5426 689.856 Z" fill="#000000" fill-rule="nonzero" fill-opacity="1" /><path clip-path="url(#clip730)" d="M20.049 664.457 L64.0042 648.002 L64.0042 654.208 L37.6501 664.203 L64.0042 676.488 L64.0042 682.695 L29.8203 667.067 L23.5183 669.422 Q19.5079 670.918 19.5079 674.324 L19.5079 677.38 L14.479 677.38 L14.5426 673.656 Q14.6381 666.462 20.049 664.457 Z" fill="#000000" fill-rule="nonzero" fill-opacity="1" /><path clip-path="url(#clip730)" d="M14.5426 640.84 L14.5426 635.748 Q22.0542 630.974 29.2474 628.618 Q36.4406 626.231 43.5384 626.231 Q50.668 626.231 57.8931 628.618 Q65.1182 630.974 72.5979 635.748 L72.5979 640.84 Q65.3091 636.607 58.1159 634.538 Q50.8908 632.438 43.5384 632.438 Q36.186 632.438 29.0246 634.538 Q21.8632 636.607 14.5426 640.84 Z" fill="#000000" fill-rule="nonzero" fill-opacity="1" /><polyline clip-path="url(#clip732)" style="stroke:#009af9; stroke-linecap:round; stroke-linejoin:round; stroke-width:4; stroke-opacity:1; fill:none" points="403.47,1384.24 758.745,1264.79 1098.34,1016.02 1422.05,773.798 1729.68,538.096 2021.05,308.897 2295.98,86.1857 "/>
<line clip-path="url(#clip732)" x1="403.47" y1="1384.24" x2="387.47" y2="1368.24" style="stroke:#009af9; stroke-width:4; stroke-opacity:1"/>
<line clip-path="url(#clip732)" x1="403.47" y1="1384.24" x2="387.47" y2="1400.24" style="stroke:#009af9; stroke-width:4; stroke-opacity:1"/>
<line clip-path="url(#clip732)" x1="403.47" y1="1384.24" x2="419.47" y2="1400.24" style="stroke:#009af9; stroke-width:4; stroke-opacity:1"/>
<line clip-path="url(#clip732)" x1="403.47" y1="1384.24" x2="419.47" y2="1368.24" style="stroke:#009af9; stroke-width:4; stroke-opacity:1"/>
<line clip-path="url(#clip732)" x1="758.745" y1="1264.79" x2="742.745" y2="1248.79" style="stroke:#009af9; stroke-width:4; stroke-opacity:1"/>
<line clip-path="url(#clip732)" x1="758.745" y1="1264.79" x2="742.745" y2="1280.79" style="stroke:#009af9; stroke-width:4; stroke-opacity:1"/>
<line clip-path="url(#clip732)" x1="758.745" y1="1264.79" x2="774.745" y2="1280.79" style="stroke:#009af9; stroke-width:4; stroke-opacity:1"/>
<line clip-path="url(#clip732)" x1="758.745" y1="1264.79" x2="774.745" y2="1248.79" style="stroke:#009af9; stroke-width:4; stroke-opacity:1"/>
<line clip-path="url(#clip732)" x1="1098.34" y1="1016.02" x2="1082.34" y2="1000.02" style="stroke:#009af9; stroke-width:4; stroke-opacity:1"/>
<line clip-path="url(#clip732)" x1="1098.34" y1="1016.02" x2="1082.34" y2="1032.02" style="stroke:#009af9; stroke-width:4; stroke-opacity:1"/>
<line clip-path="url(#clip732)" x1="1098.34" y1="1016.02" x2="1114.34" y2="1032.02" style="stroke:#009af9; stroke-width:4; stroke-opacity:1"/>
<line clip-path="url(#clip732)" x1="1098.34" y1="1016.02" x2="1114.34" y2="1000.02" style="stroke:#009af9; stroke-width:4; stroke-opacity:1"/>
<line clip-path="url(#clip732)" x1="1422.05" y1="773.798" x2="1406.05" y2="757.798" style="stroke:#009af9; stroke-width:4; stroke-opacity:1"/>
<line clip-path="url(#clip732)" x1="1422.05" y1="773.798" x2="1406.05" y2="789.798" style="stroke:#009af9; stroke-width:4; stroke-opacity:1"/>
<line clip-path="url(#clip732)" x1="1422.05" y1="773.798" x2="1438.05" y2="789.798" style="stroke:#009af9; stroke-width:4; stroke-opacity:1"/>
<line clip-path="url(#clip732)" x1="1422.05" y1="773.798" x2="1438.05" y2="757.798" style="stroke:#009af9; stroke-width:4; stroke-opacity:1"/>
<line clip-path="url(#clip732)" x1="1729.68" y1="538.096" x2="1713.68" y2="522.096" style="stroke:#009af9; stroke-width:4; stroke-opacity:1"/>
<line clip-path="url(#clip732)" x1="1729.68" y1="538.096" x2="1713.68" y2="554.096" style="stroke:#009af9; stroke-width:4; stroke-opacity:1"/>
<line clip-path="url(#clip732)" x1="1729.68" y1="538.096" x2="1745.68" y2="554.096" style="stroke:#009af9; stroke-width:4; stroke-opacity:1"/>
<line clip-path="url(#clip732)" x1="1729.68" y1="538.096" x2="1745.68" y2="522.096" style="stroke:#009af9; stroke-width:4; stroke-opacity:1"/>
<line clip-path="url(#clip732)" x1="2021.05" y1="308.897" x2="2005.05" y2="292.897" style="stroke:#009af9; stroke-width:4; stroke-opacity:1"/>
<line clip-path="url(#clip732)" x1="2021.05" y1="308.897" x2="2005.05" y2="324.897" style="stroke:#009af9; stroke-width:4; stroke-opacity:1"/>
<line clip-path="url(#clip732)" x1="2021.05" y1="308.897" x2="2037.05" y2="324.897" style="stroke:#009af9; stroke-width:4; stroke-opacity:1"/>
<line clip-path="url(#clip732)" x1="2021.05" y1="308.897" x2="2037.05" y2="292.897" style="stroke:#009af9; stroke-width:4; stroke-opacity:1"/>
<line clip-path="url(#clip732)" x1="2295.98" y1="86.1857" x2="2279.98" y2="70.1857" style="stroke:#009af9; stroke-width:4; stroke-opacity:1"/>
<line clip-path="url(#clip732)" x1="2295.98" y1="86.1857" x2="2279.98" y2="102.186" style="stroke:#009af9; stroke-width:4; stroke-opacity:1"/>
<line clip-path="url(#clip732)" x1="2295.98" y1="86.1857" x2="2311.98" y2="102.186" style="stroke:#009af9; stroke-width:4; stroke-opacity:1"/>
<line clip-path="url(#clip732)" x1="2295.98" y1="86.1857" x2="2311.98" y2="70.1857" style="stroke:#009af9; stroke-width:4; stroke-opacity:1"/>
<polyline clip-path="url(#clip732)" style="stroke:#e26f46; stroke-linecap:round; stroke-linejoin:round; stroke-width:4; stroke-opacity:1; fill:none" points="403.47,1384.24 758.745,1264.79 1098.34,1016.02 1422.05,773.798 1729.68,538.096 2021.05,308.897 2295.98,86.1857 "/>
<line clip-path="url(#clip732)" x1="403.47" y1="1384.24" x2="403.47" y2="1368.24" style="stroke:#e26f46; stroke-width:4; stroke-opacity:1"/>
<line clip-path="url(#clip732)" x1="403.47" y1="1384.24" x2="387.47" y2="1384.24" style="stroke:#e26f46; stroke-width:4; stroke-opacity:1"/>
<line clip-path="url(#clip732)" x1="403.47" y1="1384.24" x2="403.47" y2="1400.24" style="stroke:#e26f46; stroke-width:4; stroke-opacity:1"/>
<line clip-path="url(#clip732)" x1="403.47" y1="1384.24" x2="419.47" y2="1384.24" style="stroke:#e26f46; stroke-width:4; stroke-opacity:1"/>
<line clip-path="url(#clip732)" x1="758.745" y1="1264.79" x2="758.745" y2="1248.79" style="stroke:#e26f46; stroke-width:4; stroke-opacity:1"/>
<line clip-path="url(#clip732)" x1="758.745" y1="1264.79" x2="742.745" y2="1264.79" style="stroke:#e26f46; stroke-width:4; stroke-opacity:1"/>
<line clip-path="url(#clip732)" x1="758.745" y1="1264.79" x2="758.745" y2="1280.79" style="stroke:#e26f46; stroke-width:4; stroke-opacity:1"/>
<line clip-path="url(#clip732)" x1="758.745" y1="1264.79" x2="774.745" y2="1264.79" style="stroke:#e26f46; stroke-width:4; stroke-opacity:1"/>
<line clip-path="url(#clip732)" x1="1098.34" y1="1016.02" x2="1098.34" y2="1000.02" style="stroke:#e26f46; stroke-width:4; stroke-opacity:1"/>
<line clip-path="url(#clip732)" x1="1098.34" y1="1016.02" x2="1082.34" y2="1016.02" style="stroke:#e26f46; stroke-width:4; stroke-opacity:1"/>
<line clip-path="url(#clip732)" x1="1098.34" y1="1016.02" x2="1098.34" y2="1032.02" style="stroke:#e26f46; stroke-width:4; stroke-opacity:1"/>
<line clip-path="url(#clip732)" x1="1098.34" y1="1016.02" x2="1114.34" y2="1016.02" style="stroke:#e26f46; stroke-width:4; stroke-opacity:1"/>
<line clip-path="url(#clip732)" x1="1422.05" y1="773.798" x2="1422.05" y2="757.798" style="stroke:#e26f46; stroke-width:4; stroke-opacity:1"/>
<line clip-path="url(#clip732)" x1="1422.05" y1="773.798" x2="1406.05" y2="773.798" style="stroke:#e26f46; stroke-width:4; stroke-opacity:1"/>
<line clip-path="url(#clip732)" x1="1422.05" y1="773.798" x2="1422.05" y2="789.798" style="stroke:#e26f46; stroke-width:4; stroke-opacity:1"/>
<line clip-path="url(#clip732)" x1="1422.05" y1="773.798" x2="1438.05" y2="773.798" style="stroke:#e26f46; stroke-width:4; stroke-opacity:1"/>
<line clip-path="url(#clip732)" x1="1729.68" y1="538.096" x2="1729.68" y2="522.096" style="stroke:#e26f46; stroke-width:4; stroke-opacity:1"/>
<line clip-path="url(#clip732)" x1="1729.68" y1="538.096" x2="1713.68" y2="538.096" style="stroke:#e26f46; stroke-width:4; stroke-opacity:1"/>
<line clip-path="url(#clip732)" x1="1729.68" y1="538.096" x2="1729.68" y2="554.096" style="stroke:#e26f46; stroke-width:4; stroke-opacity:1"/>
<line clip-path="url(#clip732)" x1="1729.68" y1="538.096" x2="1745.68" y2="538.096" style="stroke:#e26f46; stroke-width:4; stroke-opacity:1"/>
<line clip-path="url(#clip732)" x1="2021.05" y1="308.897" x2="2021.05" y2="292.897" style="stroke:#e26f46; stroke-width:4; stroke-opacity:1"/>
<line clip-path="url(#clip732)" x1="2021.05" y1="308.897" x2="2005.05" y2="308.897" style="stroke:#e26f46; stroke-width:4; stroke-opacity:1"/>
<line clip-path="url(#clip732)" x1="2021.05" y1="308.897" x2="2021.05" y2="324.897" style="stroke:#e26f46; stroke-width:4; stroke-opacity:1"/>
<line clip-path="url(#clip732)" x1="2021.05" y1="308.897" x2="2037.05" y2="308.897" style="stroke:#e26f46; stroke-width:4; stroke-opacity:1"/>
<line clip-path="url(#clip732)" x1="2295.98" y1="86.1857" x2="2295.98" y2="70.1857" style="stroke:#e26f46; stroke-width:4; stroke-opacity:1"/>
<line clip-path="url(#clip732)" x1="2295.98" y1="86.1857" x2="2279.98" y2="86.1857" style="stroke:#e26f46; stroke-width:4; stroke-opacity:1"/>
<line clip-path="url(#clip732)" x1="2295.98" y1="86.1857" x2="2295.98" y2="102.186" style="stroke:#e26f46; stroke-width:4; stroke-opacity:1"/>
<line clip-path="url(#clip732)" x1="2295.98" y1="86.1857" x2="2311.98" y2="86.1857" style="stroke:#e26f46; stroke-width:4; stroke-opacity:1"/>
<path clip-path="url(#clip730)" d="M413.563 248.629 L666.599 248.629 L666.599 93.1086 L413.563 93.1086  Z" fill="#ffffff" fill-rule="evenodd" fill-opacity="1"/>
<polyline clip-path="url(#clip730)" style="stroke:#000000; stroke-linecap:round; stroke-linejoin:round; stroke-width:4; stroke-opacity:1; fill:none" points="413.563,248.629 666.599,248.629 666.599,93.1086 413.563,93.1086 413.563,248.629 "/>
<polyline clip-path="url(#clip730)" style="stroke:#009af9; stroke-linecap:round; stroke-linejoin:round; stroke-width:4; stroke-opacity:1; fill:none" points="435.853,144.949 569.59,144.949 "/>
<line clip-path="url(#clip730)" x1="502.721" y1="144.949" x2="482.083" y2="124.31" style="stroke:#009af9; stroke-width:4.55111; stroke-opacity:1"/>
<line clip-path="url(#clip730)" x1="502.721" y1="144.949" x2="482.083" y2="165.587" style="stroke:#009af9; stroke-width:4.55111; stroke-opacity:1"/>
<line clip-path="url(#clip730)" x1="502.721" y1="144.949" x2="523.36" y2="165.587" style="stroke:#009af9; stroke-width:4.55111; stroke-opacity:1"/>
<line clip-path="url(#clip730)" x1="502.721" y1="144.949" x2="523.36" y2="124.31" style="stroke:#009af9; stroke-width:4.55111; stroke-opacity:1"/>
<path clip-path="url(#clip730)" d="M605.143 130.261 L617.111 162.229 L612.597 162.229 L605.329 143.062 L596.393 162.229 L591.88 162.229 L603.245 137.368 L601.532 132.784 Q600.444 129.868 597.968 129.868 L595.745 129.868 L595.745 126.21 L598.454 126.257 Q603.685 126.326 605.143 130.261 Z" fill="#000000" fill-rule="nonzero" fill-opacity="1" /><path clip-path="url(#clip730)" d="M624.403 158.293 L632.041 158.293 L632.041 131.928 L623.731 133.595 L623.731 129.335 L631.995 127.669 L636.671 127.669 L636.671 158.293 L644.31 158.293 L644.31 162.229 L624.403 162.229 L624.403 158.293 Z" fill="#000000" fill-rule="nonzero" fill-opacity="1" /><polyline clip-path="url(#clip730)" style="stroke:#e26f46; stroke-linecap:round; stroke-linejoin:round; stroke-width:4; stroke-opacity:1; fill:none" points="435.853,196.789 569.59,196.789 "/>
<line clip-path="url(#clip730)" x1="502.721" y1="196.789" x2="502.721" y2="176.15" style="stroke:#e26f46; stroke-width:4.55111; stroke-opacity:1"/>
<line clip-path="url(#clip730)" x1="502.721" y1="196.789" x2="482.083" y2="196.789" style="stroke:#e26f46; stroke-width:4.55111; stroke-opacity:1"/>
<line clip-path="url(#clip730)" x1="502.721" y1="196.789" x2="502.721" y2="217.427" style="stroke:#e26f46; stroke-width:4.55111; stroke-opacity:1"/>
<line clip-path="url(#clip730)" x1="502.721" y1="196.789" x2="523.36" y2="196.789" style="stroke:#e26f46; stroke-width:4.55111; stroke-opacity:1"/>
<path clip-path="url(#clip730)" d="M605.143 182.101 L617.111 214.069 L612.597 214.069 L605.329 194.902 L596.393 214.069 L591.88 214.069 L603.245 189.208 L601.532 184.624 Q600.444 181.708 597.968 181.708 L595.745 181.708 L595.745 178.05 L598.454 178.097 Q603.685 178.166 605.143 182.101 Z" fill="#000000" fill-rule="nonzero" fill-opacity="1" /><path clip-path="url(#clip730)" d="M627.62 210.133 L643.94 210.133 L643.94 214.069 L621.995 214.069 L621.995 210.133 Q624.657 207.379 629.241 202.749 Q633.847 198.096 635.028 196.754 Q637.273 194.231 638.152 192.495 Q639.055 190.735 639.055 189.046 Q639.055 186.291 637.111 184.555 Q635.19 182.819 632.088 182.819 Q629.889 182.819 627.435 183.583 Q625.004 184.347 622.227 185.897 L622.227 181.175 Q625.051 180.041 627.504 179.462 Q629.958 178.884 631.995 178.884 Q637.365 178.884 640.56 181.569 Q643.754 184.254 643.754 188.745 Q643.754 190.874 642.944 192.796 Q642.157 194.694 640.051 197.286 Q639.472 197.958 636.37 201.175 Q633.268 204.37 627.62 210.133 Z" fill="#000000" fill-rule="nonzero" fill-opacity="1" /></svg>
